<?xml version="1.0" standalone="no"?>
<svg xmlns="http://www.w3.org/2000/svg" viewBox="0 0 102.87 118.785" width="102.87" height="118.785"><polygon fill="#fe4e01" points="102.87,29.69625 102.87,89.08875 51.435,118.785 0,89.08875 0,29.69625 51.435,0"></polygon><path fill="white" fill-rule="nonzero" d="M6.86 21.78Q4.31 21.78 2.56 20.37Q0.81 18.96 0 16.58L0 16.58L3.47 14.95L3.81 15.51Q4.62 16.91 5.36 17.70Q6.10 18.48 7.22 18.48L7.22 18.48Q7.95 18.48 8.53 17.78Q9.10 17.08 9.10 16.24L9.10 16.24Q9.10 15.46 8.71 14.81Q8.32 14.17 7.70 13.78L7.70 13.78L4.03 11.59Q2.44 10.70 1.48 9.32Q0.53 7.95 0.53 6.24L0.53 6.24Q0.53 4.42 1.39 3.00Q2.24 1.57 3.71 0.78Q5.18 0 7.03 0L7.03 0Q9.18 0 10.70 1.06Q12.21 2.13 12.94 4.23L12.94 4.23L9.46 5.80Q9.35 5.57 8.99 4.79Q8.62 4.00 8.11 3.65Q7.59 3.30 6.83 3.30L6.83 3.30Q5.91 3.30 5.42 3.89Q4.93 4.48 4.93 5.40L4.93 5.40Q4.93 6.08 5.31 6.62Q5.68 7.17 6.22 7.48L6.22 7.48L9.60 9.46Q13.36 11.59 13.55 15.06L13.55 15.06Q13.55 17.05 12.67 18.58Q11.79 20.10 10.26 20.94Q8.74 21.78 6.86 21.78L6.86 21.78ZM18.28 21.39L14.62 21.39L19.04 0.64L24.89 0.39L29.43 21.22L24.95 21.39L24.19 16.88L19.18 16.88L18.28 21.39ZM21.50 3.47L19.94 13.52L23.44 13.52L21.50 3.47ZM39.42 21.39L34.92 21.39L29.96 0.56L34.83 0.39L37.60 14.90L40.52 0.56L44.46 0.39L39.42 21.39Z" transform="translate(29.204, 23.500499999999995)"></path><g fill="white" color="white" transform="translate(29.435000000000002 53.284499999999994) scale(0.9166667)"><svg width="48.0" height="48.0" x="0.0" y="0.0" viewBox="0 0 48 48"><path fill="currentColor" fill-rule="nonzero" d="M24 .21L.21 24 24 47.79 47.79 24 24 .21zM5.82 24L24 5.82l7.69 7.69-2.8 2.8L24 11.43 11.43 24l4.88 4.89-2.8 2.8L5.82 24zm25.15 0L24 30.97 17.03 24 24 17.03 30.97 24zM16.31 34.49l2.8-2.8L24 36.57 36.57 24l-4.89-4.89 2.8-2.8 7.7 7.69L24 42.18l-7.69-7.69z"></path></svg></g></svg>